<svg width="129" height="116" viewBox="0 0 129 116" fill="none" xmlns="http://www.w3.org/2000/svg">
<path d="M31.9091 93.9545C26.4091 93.9545 21.5227 93.0114 17.25 91.125C13 89.2159 9.65909 86.5909 7.22727 83.25C4.79545 79.9091 3.56818 76.0682 3.54545 71.7273H22.6364C22.6591 73.0682 23.0682 74.2727 23.8636 75.3409C24.6818 76.3864 25.7955 77.2045 27.2045 77.7955C28.6136 78.3864 30.2273 78.6818 32.0455 78.6818C33.7955 78.6818 35.3409 78.375 36.6818 77.7614C38.0227 77.125 39.0682 76.25 39.8182 75.1364C40.5682 74.0227 40.9318 72.75 40.9091 71.3182C40.9318 69.9091 40.5 68.6591 39.6136 67.5682C38.75 66.4773 37.5341 65.625 35.9659 65.0114C34.3977 64.3977 32.5909 64.0909 30.5455 64.0909H23.4545V51H30.5455C32.4318 51 34.0909 50.6932 35.5227 50.0795C36.9773 49.4659 38.1023 48.6136 38.8977 47.5227C39.7159 46.4318 40.1136 45.1818 40.0909 43.7727C40.1136 42.4091 39.7841 41.2045 39.1023 40.1591C38.4205 39.1136 37.4659 38.2955 36.2386 37.7045C35.0341 37.1136 33.6364 36.8182 32.0455 36.8182C30.3182 36.8182 28.7727 37.125 27.4091 37.7386C26.0682 38.3523 25.0114 39.2045 24.2386 40.2955C23.4659 41.3864 23.0682 42.6364 23.0455 44.0455H4.90909C4.93182 39.7727 6.10227 36 8.42045 32.7273C10.7614 29.4545 13.9659 26.8864 18.0341 25.0227C22.1023 23.1591 26.7727 22.2273 32.0455 22.2273C37.2045 22.2273 41.7614 23.1023 45.7159 24.8523C49.6932 26.6023 52.7955 29.0114 55.0227 32.0795C57.2727 35.125 58.3864 38.6136 58.3636 42.5455C58.4091 46.4545 57.0682 49.6591 54.3409 52.1591C51.6364 54.6591 48.2045 56.1364 44.0455 56.5909V57.1364C49.6818 57.75 53.9205 59.4773 56.7614 62.3182C59.6023 65.1364 61 68.6818 60.9545 72.9545C60.9773 77.0455 59.75 80.6705 57.2727 83.8295C54.8182 86.9886 51.3977 89.4659 47.0114 91.2614C42.6477 93.0568 37.6136 93.9545 31.9091 93.9545ZM69.2812 93V23.1818H99.4176C104.599 23.1818 109.134 24.125 113.02 26.0114C116.906 27.8977 119.929 30.6136 122.088 34.1591C124.247 37.7045 125.327 41.9545 125.327 46.9091C125.327 51.9091 124.213 56.125 121.986 59.5568C119.781 62.9886 116.679 65.5795 112.679 67.3295C108.702 69.0795 104.054 69.9545 98.7358 69.9545H80.7358V55.2273H94.9176C97.1449 55.2273 99.0426 54.9545 100.611 54.4091C102.202 53.8409 103.418 52.9432 104.259 51.7159C105.122 50.4886 105.554 48.8864 105.554 46.9091C105.554 44.9091 105.122 43.2841 104.259 42.0341C103.418 40.7614 102.202 39.8295 100.611 39.2386C99.0426 38.625 97.1449 38.3182 94.9176 38.3182H88.2358V93H69.2812ZM110.19 60.9545L127.645 93H107.054L90.0085 60.9545H110.19Z" fill="url(#paint0_linear_24_343)"/>
<defs>
<linearGradient id="paint0_linear_24_343" x1="64.5" y1="0" x2="64.5" y2="116" gradientUnits="userSpaceOnUse">
<stop offset="0.463542" stop-color="#AF1B68" stop-opacity="0.9"/>
<stop offset="0.786458" stop-color="#F57D0E" stop-opacity="0.81"/>
<stop offset="1" stop-color="white" stop-opacity="0.38"/>
</linearGradient>
</defs>
</svg>
