<svg xmlns="http://www.w3.org/2000/svg" width="708" height="769" fill="none"><g filter="url(#a)"><g filter="url(#b)"><path fill="#85FBFD" d="M138.11 90.7045c-1.597-16.5321 11.969-30.5726 28.546-29.5443l305.843 18.9715c12.773.7923 23.235 10.4425 25.054 23.1103l81.322 566.219c2.198 15.303-8.879 29.324-24.275 30.727l-327.747 29.875c-14.793 1.349-27.897-9.506-29.326-24.292L138.11 90.7045Z"/></g><path fill="#1B1B51" d="M169.049 102.954c-1.266-11.0795 7.744-20.6327 18.879-20.0157l278.19 15.4157c8.602.4767 15.66 6.982 16.836 15.516l73.815 535.945c1.412 10.25-6.088 19.578-16.402 20.399l-286.391 22.824c-9.67.771-18.212-6.261-19.313-15.9l-65.614-574.184Z"/><mask id="c" width="443" height="670" x="137" y="61" maskUnits="userSpaceOnUse" style="mask-type:alpha"><path fill="#3A2CDA" d="M138.11 90.7045c-1.597-16.5321 11.969-30.5726 28.546-29.5443l305.843 18.9715c12.773.7923 23.235 10.4425 25.054 23.1103l81.322 566.219c2.198 15.303-8.879 29.324-24.275 30.727l-327.747 29.875c-14.793 1.349-27.897-9.506-29.326-24.292L138.11 90.7045Z"/></mask><g mask="url(#c)"><path fill="#2254B8" d="m231.875 650.822 322.031-22.451 2.915 21.513c1.385 10.225-6.092 19.52-16.377 20.357L253.78 693.582c-9.812.799-18.446-6.434-19.379-16.234l-2.526-26.526Z"/></g><path fill="#3D7AF1" fill-opacity=".64" d="M200.092 137.93c-.624-5.53 3.871-10.296 9.428-9.996l242.075 13.05c4.386.236 7.96 3.604 8.457 7.968l16.941 148.701c.608 5.339-3.568 10.018-8.942 10.018H227.288c-4.58 0-8.43-3.439-8.944-7.991l-18.252-161.75Z"/><path fill="#2A5CBD" fill-opacity=".69" d="M201.021 144.634c-.744-6.06-1.116-9.09-.099-11.372.818-1.835 2.228-3.344 4.003-4.286 2.207-1.171 5.255-1.006 11.352-.678l230.203 12.41c4.599.248 6.898.372 8.686 1.346 1.446.788 2.648 1.957 3.476 3.381 1.023 1.761 1.21 4.056 1.585 8.646l1.771 21.691-258.187-8.42-2.79-22.718Z"/><path fill="#65A4EE" fill-opacity=".22" d="m203.109 166.722 259.551 8.812 14.292 121.455c.629 5.351-3.551 10.052-8.939 10.052H227.309c-4.571 0-8.417-3.428-8.94-7.969l-15.26-132.35Z"/><path fill="#1B1B51" d="M220.675 178.083c-.381-3.053 2.059-5.723 5.134-5.617l71.283 2.458c2.446.084 4.472 1.927 4.786 4.354l8.546 65.921c.387 2.992-1.942 5.643-4.959 5.643h-71.281c-2.522 0-4.649-1.878-4.961-4.38l-8.548-68.379Z"/><ellipse cx="265.551" cy="198.223" fill="#85FBFD" rx="6.31435" ry="9.12072" transform="rotate(-5.21278 265.551 198.223)"/><path fill="#85FBFD" d="M279.148 221.144c.443 7.263-5.554 1.806-12.516 2.23-6.962.425-12.252 6.571-12.695-.692-.443-7.263 4.842-13.495 11.804-13.92 6.961-.425 12.964 5.119 13.407 12.382Z"/><ellipse cx="301.333" cy="509.029" fill="#85FBFD" rx="67.3531" ry="77.1754"/><ellipse cx="309.05" cy="507.626" fill="#4C6CD4" rx="59.6355" ry="75.7722"/><ellipse cx="308.349" cy="508.327" fill="#85FBFD" rx="51.918" ry="62.4419"/><g filter="url(#d)"><ellipse cx="302.736" cy="509.73" fill="#3A2CDA" fill-opacity=".42" rx="46.3052" ry="61.0387"/></g><path fill="#65A4EE" d="m207.319 504.819 33.676-2.105 1.321 1.477c5.846 6.533 5.253 16.577-1.321 22.378l-33.676 2.104.969-1.939c2.94-5.88 3.097-12.766.427-18.774l-1.396-3.141Z"/><path fill="#2254B8" d="M84.54 497.803h112.255c16.855 5.522 20.255 27.873 5.803 38.156l-1.593 1.134-112.957 12.628c21.015-11.075 19.98-41.512-1.7389-51.134l-1.7691-.784Z"/><ellipse cx="85.2414" cy="524.464" fill="#1B1B51" rx="18.2414" ry="26.6606"/><path stroke="#FFFFE7" stroke-width="2" d="m400.55 445.783 16.839 164.173M416.342 609.06l188.027-9.823M413.298 504.178c4.843 0 9.694-.737 14.321-2.165l2.787-1.062c7.933-3.023 15.472-6.993 22.452-11.825 5.15-3.564 10.012-7.527 14.541-11.851l8.628-8.237 7.801-6c6.948-5.344 14.359-10.058 22.145-14.085 5.729-2.963 11.876-5.038 18.23-6.153l2.272-.399c5.181-.909 10.432-1.366 15.692-1.366h12.853"/><path fill="#A83772" d="m519.528 469.739 11.226-15.435h37.184l16.839 131.199-18.943 7.015h-32.975l-13.331-122.779Z"/><path fill="#CF4E91" d="m518.125 469.739 12.629-15.363 16.838 131.198-14.734 7.016-14.733-122.851Z"/><path fill="#2254B8" d="m465.505 492.262 11.226-15.507h36.483l13.33 112.256-18.241 7.015-31.572-.63-11.226-103.134Z"/><path fill="#4C90D4" d="m465.505 492.323 11.226-15.568 12.629 112.256-12.629 6.314-11.226-103.002Z"/><path fill="#D9D9D9" fill-opacity=".62" d="M489.36 589.082h37.184l-18.943 7.016-30.87-.702 12.629-6.314Z"/><path fill="#4C90D4" d="m419.2 534.286 4.911-8.419 37.886-2.105 7.718 68.055-7.718 5.613-35.781 2.104-7.016-65.248Z"/><path fill="#85FBFD" d="m418.499 535.059 5.612-9.121 7.718 68.757-5.613 4.911-7.717-64.547Z"/><path fill="#D9D9D9" fill-opacity=".78" d="m431.829 594.695 37.886-2.807-7.718 5.613-35.781 2.105 5.613-4.911Z"/><ellipse cx="222.561" cy="360.397" fill="#396EDC" fill-opacity=".56" rx="51.918" ry="72.7246" transform="rotate(-18.0842 222.561 360.397)"/><ellipse cx="242.32" cy="345.799" fill="#85FBFD" rx="57.5307" ry="71.5626" transform="rotate(-4.82479 242.32 345.799)"/><ellipse cx="252.338" cy="347.698" fill="#396EDC" rx="51.918" ry="71.5626" transform="rotate(-4.82479 252.338 347.698)"/><g filter="url(#e)"><path fill="#A83772" d="m305.519 335.464-50.445 11.299 7.265-72.43 4.857 2.778c10.871 6.218 19.905 15.199 26.186 26.033 2.942 5.075 5.475 10.405 7.555 15.889 1.526 4.024 2.764 8.172 3.689 12.375l.893 4.056Z"/></g><g filter="url(#f)"><path fill="#CF4E91" d="m292.872 396.287-38.137-47.601 48.346-10.313.93 11.175c.541 6.507.23 13.056-.925 19.483l-1.73 9.629-1.16 3.954c-1.471 5.015-3.964 9.67-7.324 13.673Z"/></g><path fill="#396EDC" d="m405.87 273.293 117.868-92.61 26.66 212.583-129.794-37.886-12.629-6.315-8.419-9.12-5.613-11.226-2.028-6.422c-1.446-4.578-2.182-9.351-2.182-14.153v-5.384l2.105-11.225 4.911-10.524 9.121-7.718Z"/><path fill="#CF4E91" stroke="#CF4E91" d="M669.548 271.192c3.57 36.55-2.563 70.531-15.337 95.919-12.777 25.396-32.158 42.128-55.071 44.366-22.913 2.238-45.165-10.429-62.614-32.873-17.445-22.437-30.036-54.589-33.605-91.139-3.569-36.55 2.563-70.531 15.337-95.92 12.777-25.395 32.158-42.128 55.071-44.366 22.913-2.237 45.165 10.43 62.614 32.873 17.445 22.438 30.036 54.59 33.605 91.14Z"/><path fill="#A83772" stroke="#A83772" d="M668.448 272.053c3.554 36.387-1.966 70.158-13.737 95.339-11.776 25.193-29.759 41.701-51.102 43.786-21.343 2.084-42.18-10.633-58.608-33.072-16.42-22.428-28.369-54.493-31.922-90.88-3.554-36.387 1.966-70.158 13.736-95.339 11.776-25.193 29.76-41.701 51.103-43.785 21.342-2.085 42.18 10.632 58.608 33.071 16.42 22.428 28.369 54.493 31.922 90.88Z"/><ellipse cx="590.029" cy="280.554" fill="#4C90D4" rx="70.7437" ry="116.632" transform="rotate(-5.57774 590.029 280.554)"/><path fill="#85FBFD" d="M660.436 273.678c6.261 64.109-20.187 119.158-59.073 122.956-38.885 3.797-75.484-45.095-81.745-109.204-6.26-64.109 56.441-7.462 95.327-11.259 38.886-3.798 39.23-66.602 45.491-2.493Z"/><mask id="g" width="144" height="233" x="518" y="164" maskUnits="userSpaceOnUse" style="mask-type:alpha"><ellipse cx="590.029" cy="280.554" fill="#4C90D4" rx="70.7437" ry="116.632" transform="rotate(-5.57774 590.029 280.554)"/></mask><g mask="url(#g)"><path fill="#2254B8" d="m518.125 248.809 71.563-3.58-7.718 9.121-3.508 13.33v14.032l3.508 13.331 7.718 11.927 11.927 4.911-71.563 22.522-6.314-14.733-2.456-12.314-2.455-12.313-2.105-14.663-.701-11.225.701-11.927 1.403-8.419Z"/></g><path fill="#3A2CDA" stroke="#3A2CDA" d="M618.811 275.481c.919 9.406-.607 18.129-3.789 24.622-3.187 6.503-7.991 10.697-13.61 11.246-5.618.549-11.143-2.637-15.527-8.4-4.379-5.755-7.563-14.018-8.482-23.424-.919-9.407.607-18.129 3.789-24.623 3.187-6.502 7.991-10.697 13.61-11.245 5.618-.549 11.143 2.637 15.527 8.4 4.38 5.755 7.564 14.017 8.482 23.424Z"/><path fill="#9BE8ED" stroke="#9BE8ED" d="M617.588 277.425c.708 7.252-.433 13.967-2.825 18.957-2.397 5-6.002 8.19-10.195 8.6-4.194.409-8.348-2.023-11.666-6.465-3.312-4.433-5.731-10.801-6.44-18.052-.708-7.252.434-13.967 2.825-18.958 2.397-5 6.002-8.189 10.195-8.599 4.194-.409 8.348 2.022 11.667 6.464 3.312 4.434 5.731 10.801 6.439 18.053Z"/><path fill="#F0973E" d="M352.347 296.007c4.315-5.49 10.416-9.298 17.244-10.762l27.913-5.987-11.353 25.094c-5.202 11.499-2.37 25.041 7.003 33.492l16.51 14.886-26.918 4.85-7.639-.852c-9.297-1.036-17.633-6.205-22.695-14.071l-1.943-3.954c-5.317-10.821-6.061-23.325-2.064-34.699l.798-2.27c.727-2.069 1.789-4.003 3.144-5.727Z"/><path fill="#CF4E91" d="M364.99 294.86c4.185-5.833 10.054-10.247 16.82-12.65l22.522-8.001-10.941 30.939c-3.757 10.621-1.022 22.457 7.013 30.353l19.972 19.627-36.107 2.411c-1.666.111-3.336-.154-4.886-.776-4.9-1.968-8.965-5.576-11.5-10.208l-2.999-5.481-1.078-1.969c-6.592-12.046-7.207-26.472-1.663-39.035l.436-.99c.656-1.486 1.464-2.901 2.411-4.22Z"/><path fill="#CA435C" d="M402.318 275.9c.491-.745 1.143-1.371 1.909-1.83l2.345-1.407-6.584 35.561c-1.437 7.761.351 15.772 4.952 22.185l18.47 25.743-6.449-.701-9.612-8.184c-4.55-3.874-8.458-8.444-11.581-13.539-3.917-6.393-5.656-13.884-4.956-21.349l1.026-10.951.115-.555c1.848-8.904 5.364-17.377 10.365-24.973Z"/><path stroke="#85FBFD" d="m318.171 192.681 19.645 18.241 23.854-16.838 4.911 16.838h18.241l7.718-9.12 11.927 3.508 8.419-20.347 16.838 25.959 9.823-20.346 16.838 11.226"/><circle cx="318.171" cy="191.979" r="2.80638" fill="#F0973E"/><circle cx="337.815" cy="211.624" r="2.80638" fill="#F0973E"/><circle cx="361.67" cy="193.383" r="2.80638" fill="#F0973E"/><circle cx="365.879" cy="210.221" r="2.80638" fill="#F0973E"/><circle cx="385.524" cy="210.221" r="2.80638" fill="#F0973E"/><circle cx="392.54" cy="201.802" r="2.80638" fill="#F0973E"/><circle cx="405.168" cy="204.608" r="2.80638" fill="#F0973E"/><circle cx="413.588" cy="184.963" r="2.80638" fill="#F0973E"/><circle cx="430.426" cy="211.624" r="2.80638" fill="#F0973E"/><circle cx="440.248" cy="189.173" r="2.80638" fill="#F0973E"/><circle cx="457.086" cy="201.802" r="2.80638" fill="#F0973E"/><circle cx="407.975" cy="643.806" r="25.2574" fill="#2254B8" fill-opacity=".87"/><g clip-path="url(#h)"><path fill="#85FBFD" fill-opacity=".81" d="m417.89 634.717-.596-8.315-5.248.376.274 3.834-5.598-4.508-15.668 16.948 4.199-.301.977 13.646 9.447-.676-.751-10.497 6.298-.451.751 10.497 9.448-.676-.977-13.647 4.199-.3-6.755-5.93Z"/></g><path fill="#85FBFD" d="m518.885 657.713 6.712-7.405c.108-.119.189-.261.238-.414.048-.154.063-.316.042-.476-.02-.16-.074-.313-.159-.45-.086-.137-.199-.253-.334-.342l-8.345-5.499c-.797-.525-1.843.126-1.723 1.073l1.634 12.905c.12.946 1.294 1.316 1.935.608ZM283.102 674.806l-8.43-5.369c-.136-.087-.251-.201-.338-.337-.088-.135-.145-.288-.167-.447-.023-.16-.011-.322.035-.477.046-.154.125-.296.231-.417l6.597-7.508c.63-.717 1.81-.365 1.945.579l1.833 12.879c.134.944-.901 1.611-1.706 1.097Z"/></g><defs><filter id="a" width="733" height="800.007" x="-25" y="-4" color-interpolation-filters="sRGB" filterUnits="userSpaceOnUse"><feFlood flood-opacity="0" result="BackgroundImageFix"/><feColorMatrix in="SourceAlpha" result="hardAlpha" values="0 0 0 0 0 0 0 0 0 0 0 0 0 0 0 0 0 0 127 0"/><feOffset dx="-46" dy="17"/><feGaussianBlur stdDeviation="10.5"/><feComposite in2="hardAlpha" operator="out"/><feColorMatrix values="0 0 0 0 0 0 0 0 0 0 0 0 0 0 0 0 0 0 0.44 0"/><feBlend in2="BackgroundImageFix" result="effect1_dropShadow_128_592"/><feBlend in="SourceGraphic" in2="effect1_dropShadow_128_592" result="shape"/></filter><filter id="b" width="445.171" height="673.069" x="137.982" y="61.1071" color-interpolation-filters="sRGB" filterUnits="userSpaceOnUse"><feFlood flood-opacity="0" result="BackgroundImageFix"/><feBlend in="SourceGraphic" in2="BackgroundImageFix" result="shape"/><feColorMatrix in="SourceAlpha" result="hardAlpha" values="0 0 0 0 0 0 0 0 0 0 0 0 0 0 0 0 0 0 127 0"/><feOffset dx="9" dy="4"/><feGaussianBlur stdDeviation="2"/><feComposite in2="hardAlpha" k2="-1" k3="1" operator="arithmetic"/><feColorMatrix values="0 0 0 0 0.304578 0 0 0 0 0.244281 0 0 0 0 0.993685 0 0 0 0.57 0"/><feBlend in2="shape" result="effect1_innerShadow_128_592"/></filter><filter id="d" width="101.61" height="132.077" x="247.431" y="448.692" color-interpolation-filters="sRGB" filterUnits="userSpaceOnUse"><feFlood flood-opacity="0" result="BackgroundImageFix"/><feBlend in="SourceGraphic" in2="BackgroundImageFix" result="shape"/><feColorMatrix in="SourceAlpha" result="hardAlpha" values="0 0 0 0 0 0 0 0 0 0 0 0 0 0 0 0 0 0 127 0"/><feMorphology in="SourceAlpha" radius="5" result="effect1_innerShadow_128_592"/><feOffset dx="-9" dy="10"/><feGaussianBlur stdDeviation="6"/><feComposite in2="hardAlpha" k2="-1" k3="1" operator="arithmetic"/><feColorMatrix values="0 0 0 0 0 0 0 0 0 0 0 0 0 0 0 0 0 0 0.25 0"/><feBlend in2="shape" result="effect1_innerShadow_128_592"/></filter><filter id="e" width="51.4453" height="76.4301" x="254.074" y="274.333" color-interpolation-filters="sRGB" filterUnits="userSpaceOnUse"><feFlood flood-opacity="0" result="BackgroundImageFix"/><feColorMatrix in="SourceAlpha" result="hardAlpha" values="0 0 0 0 0 0 0 0 0 0 0 0 0 0 0 0 0 0 127 0"/><feOffset dx="-1" dy="4"/><feComposite in2="hardAlpha" operator="out"/><feColorMatrix values="0 0 0 0 0 0 0 0 0 0 0 0 0 0 0 0 0 0 0.25 0"/><feBlend in2="BackgroundImageFix" result="effect1_dropShadow_128_592"/><feBlend in="SourceGraphic" in2="effect1_dropShadow_128_592" result="shape"/></filter><filter id="f" width="49.5337" height="61.914" x="254.735" y="338.373" color-interpolation-filters="sRGB" filterUnits="userSpaceOnUse"><feFlood flood-opacity="0" result="BackgroundImageFix"/><feColorMatrix in="SourceAlpha" result="hardAlpha" values="0 0 0 0 0 0 0 0 0 0 0 0 0 0 0 0 0 0 127 0"/><feOffset dy="4"/><feComposite in2="hardAlpha" operator="out"/><feColorMatrix values="0 0 0 0 0 0 0 0 0 0 0 0 0 0 0 0 0 0 0.25 0"/><feBlend in2="BackgroundImageFix" result="effect1_dropShadow_128_592"/><feBlend in="SourceGraphic" in2="effect1_dropShadow_128_592" result="shape"/></filter><clipPath id="h"><path fill="#fff" d="m389.776 625.207 33.59052242-2.40488168 2.40488168 33.59052242-33.59052242 2.40488168z"/></clipPath></defs></svg>