<svg width="708" height="769" viewBox="0 0 708 769" fill="none" xmlns="http://www.w3.org/2000/svg">
<g filter="url(#filter0_d_128_592)">
<g filter="url(#filter1_i_128_592)">
<path d="M138.11 90.7045C136.513 74.1724 150.079 60.1319 166.656 61.1602L472.499 80.1317C485.272 80.924 495.734 90.5742 497.553 103.242L578.875 669.461C581.073 684.764 569.996 698.785 554.6 700.188L226.853 730.063C212.06 731.412 198.956 720.557 197.527 705.771L138.11 90.7045Z" fill="#85FBFD"/>
</g>
<path d="M169.049 102.954C167.783 91.8745 176.793 82.3213 187.928 82.9383L466.118 98.354C474.72 98.8307 481.778 105.336 482.954 113.87L556.769 649.815C558.181 660.065 550.681 669.393 540.367 670.214L253.976 693.038C244.306 693.809 235.764 686.777 234.663 677.138L169.049 102.954Z" fill="#1B1B51"/>
<mask id="mask0_128_592" style="mask-type:alpha" maskUnits="userSpaceOnUse" x="137" y="61" width="443" height="670">
<path d="M138.11 90.7045C136.513 74.1724 150.079 60.1319 166.656 61.1602L472.499 80.1317C485.272 80.924 495.734 90.5742 497.553 103.242L578.875 669.461C581.073 684.764 569.996 698.785 554.6 700.188L226.853 730.063C212.06 731.412 198.956 720.557 197.527 705.771L138.11 90.7045Z" fill="#3A2CDA"/>
</mask>
<g mask="url(#mask0_128_592)">
<path d="M231.875 650.822L553.906 628.371L556.821 649.884C558.206 660.109 550.729 669.404 540.444 670.241L253.78 693.582C243.968 694.381 235.334 687.148 234.401 677.348L231.875 650.822Z" fill="#2254B8"/>
</g>
<path d="M200.092 137.93C199.468 132.4 203.963 127.634 209.52 127.934L451.595 140.984C455.981 141.22 459.555 144.588 460.052 148.952L476.993 297.653C477.601 302.992 473.425 307.671 468.051 307.671H227.288C222.708 307.671 218.858 304.232 218.344 299.68L200.092 137.93Z" fill="#3D7AF1" fill-opacity="0.64"/>
<path d="M201.021 144.634C200.277 138.574 199.905 135.544 200.922 133.262C201.74 131.427 203.15 129.918 204.925 128.976C207.132 127.805 210.18 127.97 216.277 128.298L446.48 140.708C451.079 140.956 453.378 141.08 455.166 142.054C456.612 142.842 457.814 144.011 458.642 145.435C459.665 147.196 459.852 149.491 460.227 154.081L461.998 175.772L203.811 167.352L201.021 144.634Z" fill="#2A5CBD" fill-opacity="0.69"/>
<path d="M203.109 166.722L462.66 175.534L476.952 296.989C477.581 302.34 473.401 307.041 468.013 307.041H227.309C222.738 307.041 218.892 303.613 218.369 299.072L203.109 166.722Z" fill="#65A4EE" fill-opacity="0.22"/>
<path d="M220.675 178.083C220.294 175.03 222.734 172.36 225.809 172.466L297.092 174.924C299.538 175.008 301.564 176.851 301.878 179.278L310.424 245.199C310.811 248.191 308.482 250.842 305.465 250.842H234.184C231.662 250.842 229.535 248.964 229.223 246.462L220.675 178.083Z" fill="#1B1B51"/>
<ellipse cx="265.551" cy="198.223" rx="6.31435" ry="9.12072" transform="rotate(-5.21278 265.551 198.223)" fill="#85FBFD"/>
<path d="M279.148 221.144C279.591 228.407 273.594 222.95 266.632 223.374C259.67 223.799 254.38 229.945 253.937 222.682C253.494 215.419 258.779 209.187 265.741 208.762C272.702 208.337 278.705 213.881 279.148 221.144Z" fill="#85FBFD"/>
<ellipse cx="301.333" cy="509.029" rx="67.3531" ry="77.1754" fill="#85FBFD"/>
<ellipse cx="309.05" cy="507.626" rx="59.6355" ry="75.7722" fill="#4C6CD4"/>
<ellipse cx="308.349" cy="508.327" rx="51.918" ry="62.4419" fill="#85FBFD"/>
<g filter="url(#filter2_i_128_592)">
<ellipse cx="302.736" cy="509.73" rx="46.3052" ry="61.0387" fill="#3A2CDA" fill-opacity="0.42"/>
</g>
<path d="M207.319 504.819L240.995 502.714L242.316 504.191C248.162 510.724 247.569 520.768 240.995 526.569L207.319 528.673L208.288 526.734C211.228 520.854 211.385 513.968 208.715 507.96L207.319 504.819Z" fill="#65A4EE"/>
<path d="M84.54 497.803H196.795C213.65 503.325 217.05 525.676 202.598 535.959L201.005 537.093L88.048 549.721C109.063 538.646 108.028 508.209 86.3091 498.587L84.54 497.803Z" fill="#2254B8"/>
<ellipse cx="85.2414" cy="524.464" rx="18.2414" ry="26.6606" fill="#1B1B51"/>
<line x1="400.55" y1="445.783" x2="417.389" y2="609.956" stroke="#FFFFE7" stroke-width="2"/>
<line x1="416.342" y1="609.06" x2="604.369" y2="599.237" stroke="#FFFFE7" stroke-width="2"/>
<path d="M413.298 504.178V504.178C418.141 504.178 422.992 503.441 427.619 502.013V502.013L430.406 500.951C438.339 497.928 445.878 493.958 452.858 489.126V489.126C458.008 485.562 462.87 481.599 467.399 477.275L476.027 469.038L483.828 463.038C490.776 457.694 498.187 452.98 505.973 448.953V448.953C511.702 445.99 517.849 443.915 524.203 442.8L526.475 442.401C531.656 441.492 536.907 441.035 542.167 441.035L555.02 441.035" stroke="#FFFFE7" stroke-width="2"/>
<path d="M519.528 469.739L530.754 454.304H567.938L584.777 585.503L565.834 592.518H532.859L519.528 469.739Z" fill="#A83772"/>
<path d="M518.125 469.739L530.754 454.376L547.592 585.574L532.858 592.59L518.125 469.739Z" fill="#CF4E91"/>
<path d="M465.505 492.262L476.731 476.755H513.214L526.544 589.011L508.303 596.026L476.731 595.396L465.505 492.262Z" fill="#2254B8"/>
<path d="M465.505 492.323L476.731 476.755L489.36 589.011L476.731 595.325L465.505 492.323Z" fill="#4C90D4"/>
<path d="M489.36 589.082H526.544L507.601 596.098L476.731 595.396L489.36 589.082Z" fill="#D9D9D9" fill-opacity="0.62"/>
<path d="M419.2 534.286L424.111 525.867L461.997 523.762L469.715 591.817L461.997 597.43L426.216 599.534L419.2 534.286Z" fill="#4C90D4"/>
<path d="M418.499 535.059L424.111 525.938L431.829 594.695L426.216 599.606L418.499 535.059Z" fill="#85FBFD"/>
<path d="M431.829 594.695L469.715 591.888L461.997 597.501L426.216 599.606L431.829 594.695Z" fill="#D9D9D9" fill-opacity="0.78"/>
<ellipse cx="222.561" cy="360.397" rx="51.918" ry="72.7246" transform="rotate(-18.0842 222.561 360.397)" fill="#396EDC" fill-opacity="0.56"/>
<ellipse cx="242.32" cy="345.799" rx="57.5307" ry="71.5626" transform="rotate(-4.82479 242.32 345.799)" fill="#85FBFD"/>
<ellipse cx="252.338" cy="347.698" rx="51.918" ry="71.5626" transform="rotate(-4.82479 252.338 347.698)" fill="#396EDC"/>
<g filter="url(#filter3_d_128_592)">
<path d="M305.519 335.464L255.074 346.763L262.339 274.333L267.196 277.111C278.067 283.329 287.101 292.31 293.382 303.144C296.324 308.219 298.857 313.549 300.937 319.033C302.463 323.057 303.701 327.205 304.626 331.408L305.519 335.464Z" fill="#A83772"/>
</g>
<g filter="url(#filter4_d_128_592)">
<path d="M292.872 396.287L254.735 348.686L303.081 338.373L304.011 349.548C304.552 356.055 304.241 362.604 303.086 369.031L301.356 378.66L300.196 382.614C298.725 387.629 296.232 392.284 292.872 396.287Z" fill="#CF4E91"/>
</g>
<path d="M405.87 273.293L523.738 180.683L550.398 393.266L420.604 355.38L407.975 349.065L399.556 339.945L393.943 328.719L391.915 322.297C390.469 317.719 389.733 312.946 389.733 308.144V302.76L391.838 291.535L396.749 281.011L405.87 273.293Z" fill="#396EDC"/>
<path d="M669.548 271.192C673.118 307.742 666.985 341.723 654.211 367.111C641.434 392.507 622.053 409.239 599.14 411.477C576.227 413.715 553.975 401.048 536.526 378.604C519.081 356.167 506.49 324.015 502.921 287.465C499.352 250.915 505.484 216.934 518.258 191.545C531.035 166.15 550.416 149.417 573.329 147.179C596.242 144.942 618.494 157.609 635.943 180.052C653.388 202.49 665.979 234.642 669.548 271.192Z" fill="#CF4E91" stroke="#CF4E91"/>
<path d="M668.448 272.053C672.002 308.44 666.482 342.211 654.711 367.392C642.935 392.585 624.952 409.093 603.609 411.178C582.266 413.262 561.429 400.545 545.001 378.106C528.581 355.678 516.632 323.613 513.079 287.226C509.525 250.839 515.045 217.068 526.815 191.887C538.591 166.694 556.575 150.186 577.918 148.102C599.26 146.017 620.098 158.734 636.526 181.173C652.946 203.601 664.895 235.666 668.448 272.053Z" fill="#A83772" stroke="#A83772"/>
<ellipse cx="590.029" cy="280.554" rx="70.7437" ry="116.632" transform="rotate(-5.57774 590.029 280.554)" fill="#4C90D4"/>
<path d="M660.436 273.678C666.697 337.787 640.249 392.836 601.363 396.634C562.478 400.431 525.879 351.539 519.618 287.43C513.358 223.321 576.059 279.968 614.945 276.171C653.831 272.373 654.175 209.569 660.436 273.678Z" fill="#85FBFD"/>
<mask id="mask1_128_592" style="mask-type:alpha" maskUnits="userSpaceOnUse" x="518" y="164" width="144" height="233">
<ellipse cx="590.029" cy="280.554" rx="70.7437" ry="116.632" transform="rotate(-5.57774 590.029 280.554)" fill="#4C90D4"/>
</mask>
<g mask="url(#mask1_128_592)">
<path d="M518.125 248.809L589.688 245.229L581.97 254.35L578.462 267.68V281.712L581.97 295.043L589.688 306.97L601.615 311.881L530.052 334.403L523.738 319.67L521.282 307.356L518.827 295.043L516.722 280.38L516.021 269.155L516.722 257.228L518.125 248.809Z" fill="#2254B8"/>
</g>
<path d="M618.811 275.481C619.73 284.887 618.204 293.61 615.022 300.103C611.835 306.606 607.031 310.8 601.412 311.349C595.794 311.898 590.269 308.712 585.885 302.949C581.506 297.194 578.322 288.931 577.403 279.525C576.484 270.118 578.01 261.396 581.192 254.902C584.379 248.4 589.183 244.205 594.802 243.657C600.42 243.108 605.945 246.294 610.329 252.057C614.709 257.812 617.893 266.074 618.811 275.481Z" fill="#3A2CDA" stroke="#3A2CDA"/>
<path d="M617.588 277.425C618.296 284.677 617.155 291.392 614.763 296.382C612.366 301.382 608.761 304.572 604.568 304.982C600.374 305.391 596.22 302.959 592.902 298.517C589.59 294.084 587.171 287.716 586.462 280.465C585.754 273.213 586.896 266.498 589.287 261.507C591.684 256.507 595.289 253.318 599.482 252.908C603.676 252.499 607.83 254.93 611.149 259.372C614.461 263.806 616.88 270.173 617.588 277.425Z" fill="#9BE8ED" stroke="#9BE8ED"/>
<path d="M352.347 296.007C356.662 290.517 362.763 286.709 369.591 285.245L397.504 279.258L386.151 304.352C380.949 315.851 383.781 329.393 393.154 337.844L409.664 352.73L382.746 357.58L375.107 356.728C365.81 355.692 357.474 350.523 352.412 342.657L350.469 338.703C345.152 327.882 344.408 315.378 348.405 304.004L349.203 301.734C349.93 299.665 350.992 297.731 352.347 296.007Z" fill="#F0973E"/>
<path d="M364.99 294.86C369.175 289.027 375.044 284.613 381.81 282.21L404.332 274.209L393.391 305.148C389.634 315.769 392.369 327.605 400.404 335.501L420.376 355.128L384.269 357.539C382.603 357.65 380.933 357.385 379.383 356.763C374.483 354.795 370.418 351.187 367.883 346.555L364.884 341.074L363.806 339.105C357.214 327.059 356.599 312.633 362.143 300.07L362.579 299.08C363.235 297.594 364.043 296.179 364.99 294.86Z" fill="#CF4E91"/>
<path d="M402.318 275.9C402.809 275.155 403.461 274.529 404.227 274.07L406.572 272.663L399.988 308.224C398.551 315.985 400.339 323.996 404.94 330.409L423.41 356.152L416.961 355.451L407.349 347.267C402.799 343.393 398.891 338.823 395.768 333.728C391.851 327.335 390.112 319.844 390.812 312.379L391.838 301.428L391.953 300.873C393.801 291.969 397.317 283.496 402.318 275.9Z" fill="#CA435C"/>
<path d="M318.171 192.681L337.816 210.922L361.67 194.084L366.581 210.922H384.822L392.54 201.802L404.467 205.31L412.886 184.963L429.724 210.922L439.547 190.576L456.385 201.802" stroke="#85FBFD"/>
<circle cx="318.171" cy="191.979" r="2.80638" fill="#F0973E"/>
<circle cx="337.815" cy="211.624" r="2.80638" fill="#F0973E"/>
<circle cx="361.67" cy="193.383" r="2.80638" fill="#F0973E"/>
<circle cx="365.879" cy="210.221" r="2.80638" fill="#F0973E"/>
<circle cx="385.524" cy="210.221" r="2.80638" fill="#F0973E"/>
<circle cx="392.54" cy="201.802" r="2.80638" fill="#F0973E"/>
<circle cx="405.168" cy="204.608" r="2.80638" fill="#F0973E"/>
<circle cx="413.588" cy="184.963" r="2.80638" fill="#F0973E"/>
<circle cx="430.426" cy="211.624" r="2.80638" fill="#F0973E"/>
<circle cx="440.248" cy="189.173" r="2.80638" fill="#F0973E"/>
<circle cx="457.086" cy="201.802" r="2.80638" fill="#F0973E"/>
<circle cx="407.975" cy="643.806" r="25.2574" fill="#2254B8" fill-opacity="0.87"/>
<g clip-path="url(#clip0_128_592)">
<path d="M417.89 634.717L417.294 626.402L412.046 626.778L412.32 630.612L406.722 626.104L391.054 643.052L395.253 642.751L396.23 656.397L405.677 655.721L404.926 645.224L411.224 644.773L411.975 655.27L421.423 654.594L420.446 640.947L424.645 640.647L417.89 634.717Z" fill="#85FBFD" fill-opacity="0.81"/>
</g>
<path d="M518.885 657.713L525.597 650.308C525.705 650.189 525.786 650.047 525.835 649.894C525.883 649.74 525.898 649.578 525.877 649.418C525.857 649.258 525.803 649.105 525.718 648.968C525.632 648.831 525.519 648.715 525.384 648.626L517.039 643.127C516.242 642.602 515.196 643.253 515.316 644.2L516.95 657.105C517.07 658.051 518.244 658.421 518.885 657.713Z" fill="#85FBFD"/>
<path d="M283.102 674.806L274.672 669.437C274.536 669.35 274.421 669.236 274.334 669.1C274.246 668.965 274.189 668.812 274.167 668.653C274.144 668.493 274.156 668.331 274.202 668.176C274.248 668.022 274.327 667.88 274.433 667.759L281.03 660.251C281.66 659.534 282.84 659.886 282.975 660.83L284.808 673.709C284.942 674.653 283.907 675.32 283.102 674.806Z" fill="#85FBFD"/>
</g>
<defs>
<filter id="filter0_d_128_592" x="-25" y="-4" width="733" height="800.007" filterUnits="userSpaceOnUse" color-interpolation-filters="sRGB">
<feFlood flood-opacity="0" result="BackgroundImageFix"/>
<feColorMatrix in="SourceAlpha" type="matrix" values="0 0 0 0 0 0 0 0 0 0 0 0 0 0 0 0 0 0 127 0" result="hardAlpha"/>
<feOffset dx="-46" dy="17"/>
<feGaussianBlur stdDeviation="10.5"/>
<feComposite in2="hardAlpha" operator="out"/>
<feColorMatrix type="matrix" values="0 0 0 0 0 0 0 0 0 0 0 0 0 0 0 0 0 0 0.44 0"/>
<feBlend mode="normal" in2="BackgroundImageFix" result="effect1_dropShadow_128_592"/>
<feBlend mode="normal" in="SourceGraphic" in2="effect1_dropShadow_128_592" result="shape"/>
</filter>
<filter id="filter1_i_128_592" x="137.982" y="61.1071" width="445.171" height="673.069" filterUnits="userSpaceOnUse" color-interpolation-filters="sRGB">
<feFlood flood-opacity="0" result="BackgroundImageFix"/>
<feBlend mode="normal" in="SourceGraphic" in2="BackgroundImageFix" result="shape"/>
<feColorMatrix in="SourceAlpha" type="matrix" values="0 0 0 0 0 0 0 0 0 0 0 0 0 0 0 0 0 0 127 0" result="hardAlpha"/>
<feOffset dx="9" dy="4"/>
<feGaussianBlur stdDeviation="2"/>
<feComposite in2="hardAlpha" operator="arithmetic" k2="-1" k3="1"/>
<feColorMatrix type="matrix" values="0 0 0 0 0.304578 0 0 0 0 0.244281 0 0 0 0 0.993685 0 0 0 0.57 0"/>
<feBlend mode="normal" in2="shape" result="effect1_innerShadow_128_592"/>
</filter>
<filter id="filter2_i_128_592" x="247.431" y="448.692" width="101.61" height="132.077" filterUnits="userSpaceOnUse" color-interpolation-filters="sRGB">
<feFlood flood-opacity="0" result="BackgroundImageFix"/>
<feBlend mode="normal" in="SourceGraphic" in2="BackgroundImageFix" result="shape"/>
<feColorMatrix in="SourceAlpha" type="matrix" values="0 0 0 0 0 0 0 0 0 0 0 0 0 0 0 0 0 0 127 0" result="hardAlpha"/>
<feMorphology radius="5" operator="erode" in="SourceAlpha" result="effect1_innerShadow_128_592"/>
<feOffset dx="-9" dy="10"/>
<feGaussianBlur stdDeviation="6"/>
<feComposite in2="hardAlpha" operator="arithmetic" k2="-1" k3="1"/>
<feColorMatrix type="matrix" values="0 0 0 0 0 0 0 0 0 0 0 0 0 0 0 0 0 0 0.25 0"/>
<feBlend mode="normal" in2="shape" result="effect1_innerShadow_128_592"/>
</filter>
<filter id="filter3_d_128_592" x="254.074" y="274.333" width="51.4453" height="76.4301" filterUnits="userSpaceOnUse" color-interpolation-filters="sRGB">
<feFlood flood-opacity="0" result="BackgroundImageFix"/>
<feColorMatrix in="SourceAlpha" type="matrix" values="0 0 0 0 0 0 0 0 0 0 0 0 0 0 0 0 0 0 127 0" result="hardAlpha"/>
<feOffset dx="-1" dy="4"/>
<feComposite in2="hardAlpha" operator="out"/>
<feColorMatrix type="matrix" values="0 0 0 0 0 0 0 0 0 0 0 0 0 0 0 0 0 0 0.25 0"/>
<feBlend mode="normal" in2="BackgroundImageFix" result="effect1_dropShadow_128_592"/>
<feBlend mode="normal" in="SourceGraphic" in2="effect1_dropShadow_128_592" result="shape"/>
</filter>
<filter id="filter4_d_128_592" x="254.735" y="338.373" width="49.5337" height="61.914" filterUnits="userSpaceOnUse" color-interpolation-filters="sRGB">
<feFlood flood-opacity="0" result="BackgroundImageFix"/>
<feColorMatrix in="SourceAlpha" type="matrix" values="0 0 0 0 0 0 0 0 0 0 0 0 0 0 0 0 0 0 127 0" result="hardAlpha"/>
<feOffset dy="4"/>
<feComposite in2="hardAlpha" operator="out"/>
<feColorMatrix type="matrix" values="0 0 0 0 0 0 0 0 0 0 0 0 0 0 0 0 0 0 0.25 0"/>
<feBlend mode="normal" in2="BackgroundImageFix" result="effect1_dropShadow_128_592"/>
<feBlend mode="normal" in="SourceGraphic" in2="effect1_dropShadow_128_592" result="shape"/>
</filter>
<clipPath id="clip0_128_592">
<rect width="33.6765" height="33.6765" fill="white" transform="translate(389.776 625.207) rotate(-4.09505)"/>
</clipPath>
</defs>
</svg>
