<svg width="662" height="761" viewBox="0 0 662 761" fill="none" xmlns="http://www.w3.org/2000/svg">
<g filter="url(#filter0_i_211_2774)">
<path d="M76.1918 68.2652C74.5948 51.7331 88.1611 37.6925 104.738 38.7208L437.413 59.3567C450.186 60.149 460.648 69.7992 462.467 82.4665L550.396 694.689C552.594 709.992 541.517 724.012 526.121 725.416L169.792 757.896C154.998 759.245 141.894 748.39 140.466 733.604L76.1918 68.2652Z" fill="#85FBFD"/>
</g>
<path d="M109.489 82.1995C108.222 71.1196 117.233 61.5664 128.368 62.1834L430.027 78.8996C438.629 79.3763 445.687 85.8814 446.862 94.4161L526.535 672.887C527.946 683.137 520.447 692.464 510.133 693.286L199.644 718.03C189.973 718.801 181.432 711.769 180.33 702.131L109.489 82.1995Z" fill="#1B1B51"/>
<mask id="mask0_211_2774" style="mask-type:alpha" maskUnits="userSpaceOnUse" x="76" y="38" width="475" height="721">
<path d="M76.1918 68.2652C74.5948 51.7331 88.1611 37.6925 104.738 38.7208L437.413 59.3567C450.186 60.149 460.648 69.7992 462.467 82.4665L550.396 694.689C552.594 709.992 541.517 724.012 526.121 725.416L169.792 757.896C154.998 759.245 141.894 748.39 140.466 733.604L76.1918 68.2652Z" fill="#3A2CDA"/>
</mask>
<g mask="url(#mask0_211_2774)">
<path d="M177.187 672.541L523.265 648.413L526.587 672.937C527.973 683.162 520.496 692.457 510.211 693.294L199.407 718.601C189.595 719.399 180.961 712.167 180.028 702.366L177.187 672.541Z" fill="#2254B8"/>
</g>
<path d="M142.945 120.574C142.32 115.044 146.815 110.278 152.372 110.578L413.883 124.675C418.269 124.912 421.843 128.28 422.341 132.644L440.696 293.76C441.304 299.099 437.128 303.779 431.753 303.779H171.659C167.079 303.779 163.229 300.339 162.716 295.788L142.945 120.574Z" fill="#3D7AF1" fill-opacity="0.64"/>
<path d="M143.873 127.278C143.129 121.218 142.757 118.188 143.774 115.906C144.592 114.07 146.002 112.561 147.777 111.62C149.984 110.449 153.033 110.613 159.129 110.942L408.768 124.4C413.367 124.647 415.666 124.771 417.454 125.746C418.9 126.533 420.102 127.703 420.93 129.127C421.953 130.887 422.14 133.182 422.515 137.772L424.495 162.03L147.03 152.982L143.873 127.278Z" fill="#2A5CBD" fill-opacity="0.69"/>
<path d="M146.275 152.307L425.206 161.778L440.654 293.052C441.283 298.403 437.103 303.104 431.715 303.104H171.683C167.112 303.104 163.266 299.676 162.743 295.135L146.275 152.307Z" fill="#65A4EE" fill-opacity="0.22"/>
<path d="M165.099 164.087C164.717 161.034 167.158 158.364 170.233 158.47L247.593 161.137C250.039 161.222 252.064 163.064 252.379 165.492L261.658 237.071C262.046 240.063 259.716 242.714 256.699 242.714H179.341C176.82 242.714 174.693 240.836 174.38 238.334L165.099 164.087Z" fill="#1B1B51"/>
<ellipse cx="213.37" cy="186.164" rx="6.78584" ry="9.80178" transform="rotate(-5.21278 213.37 186.164)" fill="#85FBFD"/>
<path d="M227.993 210.798C228.469 218.604 222.024 212.739 214.542 213.195C207.061 213.651 201.376 220.256 200.9 212.451C200.424 204.645 206.103 197.948 213.585 197.491C221.066 197.035 227.517 202.993 227.993 210.798Z" fill="#85FBFD"/>
<ellipse cx="251.827" cy="520.168" rx="72.3823" ry="82.938" fill="#85FBFD"/>
<ellipse cx="260.115" cy="518.66" rx="64.0885" ry="81.4302" fill="#4C6CD4"/>
<ellipse cx="259.374" cy="519.405" rx="55.7947" ry="67.1044" fill="#85FBFD"/>
<g filter="url(#filter1_i_211_2774)">
<ellipse cx="253.342" cy="520.922" rx="49.7629" ry="65.5965" fill="#3A2CDA" fill-opacity="0.42"/>
</g>
<path d="M150.79 515.636L186.981 513.374L188.401 514.961C194.683 521.982 194.046 532.776 186.981 539.01V539.01L150.79 541.272L152.179 538.494C155.119 532.614 155.275 525.728 152.605 519.721L150.79 515.636Z" fill="#65A4EE"/>
<path d="M18.8438 508.098H139.481V508.098C157.595 514.032 161.248 538.052 145.717 549.103L144.005 550.321L22.6137 563.893V563.893C45.1975 551.99 44.0851 519.281 20.7449 508.94L18.8438 508.098Z" fill="#2254B8"/>
<ellipse cx="19.6036" cy="536.75" rx="19.6036" ry="28.6513" fill="#1B1B51"/>
<line x1="358.374" y1="452.2" x2="376.47" y2="628.632" stroke="#FFFFE7" stroke-width="2"/>
<line x1="375.423" y1="627.732" x2="577.49" y2="617.176" stroke="#FFFFE7" stroke-width="2"/>
<path d="M372.146 514.948V514.948C377.35 514.948 382.564 514.155 387.537 512.62V512.62L390.531 511.479C399.057 508.231 407.159 503.964 414.66 498.771V498.771C420.194 494.941 425.419 490.682 430.287 486.035L439.559 477.183L447.942 470.735C455.409 464.992 463.374 459.926 471.741 455.599V455.599C477.898 452.414 484.504 450.184 491.332 448.986L493.774 448.557C499.342 447.58 504.985 447.089 510.638 447.089L524.451 447.089" stroke="#FFFFE7" stroke-width="2"/>
<path d="M486.301 477.94L498.365 461.353H538.326L556.422 602.347L536.064 609.887H500.627L486.301 477.94Z" fill="#A83772"/>
<path d="M484.795 477.945L498.367 461.433L516.463 602.428L500.629 609.968L484.795 477.945Z" fill="#CF4E91"/>
<path d="M428.251 502.147L440.315 485.483H479.522L493.848 606.12L474.244 613.66L440.315 612.983L428.251 502.147Z" fill="#2254B8"/>
<path d="M428.251 502.213L440.315 485.483L453.887 606.12L440.315 612.906L428.251 502.213Z" fill="#4C90D4"/>
<path d="M453.884 606.189H493.845L473.488 613.729L440.312 612.975L453.884 606.189Z" fill="#D9D9D9" fill-opacity="0.62"/>
<path d="M378.488 547.305L383.766 538.257L424.481 535.995L432.775 609.131L424.481 615.163L386.028 617.425L378.488 547.305Z" fill="#4C90D4"/>
<path d="M377.735 548.131L383.767 538.33L392.061 612.22L386.029 617.498L377.735 548.131Z" fill="#85FBFD"/>
<path d="M392.055 612.227L432.77 609.211L424.477 615.243L386.023 617.505L392.055 612.227Z" fill="#D9D9D9" fill-opacity="0.78"/>
<ellipse cx="167.176" cy="360.444" rx="55.7947" ry="78.1549" transform="rotate(-18.0842 167.176 360.444)" fill="#396EDC" fill-opacity="0.56"/>
<ellipse cx="188.406" cy="344.753" rx="61.8266" ry="76.9062" transform="rotate(-4.82479 188.406 344.753)" fill="#85FBFD"/>
<ellipse cx="199.174" cy="346.79" rx="55.7947" ry="76.9062" transform="rotate(-4.82479 199.174 346.79)" fill="#396EDC"/>
<g filter="url(#filter2_d_211_2774)">
<path d="M256.322 333.642L202.11 345.785L209.917 267.946L215.449 271.111C226.927 277.676 236.466 287.159 243.098 298.598L243.361 299.053C246.467 304.41 249.132 310.012 251.328 315.803L251.46 316.152C253.063 320.378 254.356 324.716 255.328 329.13L256.322 333.642Z" fill="#A83772"/>
</g>
<g filter="url(#filter3_d_211_2774)">
<path d="M242.733 399.007L201.748 347.852L253.704 336.769L254.764 349.51C255.305 356.017 254.994 362.566 253.839 368.993L251.849 380.064L250.603 384.313C249.023 389.702 246.343 394.705 242.733 399.007V399.007Z" fill="#CF4E91"/>
</g>
<path d="M364.176 266.848L490.845 167.323L519.496 395.779L380.009 355.064L366.438 348.278L357.39 338.477L351.358 326.413L349.016 318.996C347.57 314.417 346.834 309.644 346.834 304.843V298.516L349.096 286.452L354.374 275.142L364.176 266.848Z" fill="#396EDC"/>
<path d="M647.582 264.588C651.418 303.873 644.827 340.398 631.096 367.689C617.361 394.988 596.524 412.982 571.883 415.389C547.241 417.795 523.316 404.172 504.56 380.047C485.808 355.927 472.275 321.368 468.438 282.083C464.601 242.797 471.192 206.272 484.924 178.981C498.659 151.682 519.496 133.688 544.137 131.282C568.778 128.875 592.703 142.498 611.46 166.623C630.212 190.743 643.745 225.303 647.582 264.588Z" fill="#CF4E91" stroke="#CF4E91"/>
<path d="M646.4 265.508C650.219 304.617 644.287 340.917 631.634 367.986C618.976 395.065 599.641 412.82 576.686 415.062C553.731 417.303 531.326 403.625 513.668 379.506C496.017 355.397 483.174 320.931 479.354 281.821C475.535 242.712 481.467 206.412 494.12 179.344C506.778 152.264 526.114 134.509 549.068 132.267C572.023 130.026 594.428 143.704 612.087 167.823C629.737 191.932 642.58 226.398 646.4 265.508Z" fill="#A83772" stroke="#A83772"/>
<ellipse cx="562.077" cy="274.651" rx="76.0262" ry="125.341" transform="rotate(-5.57774 562.077 274.651)" fill="#4C90D4"/>
<path d="M637.737 267.256C644.465 336.153 616.043 395.313 574.254 399.394C532.464 403.475 493.133 350.932 486.405 282.035C479.676 213.139 547.06 274.017 588.849 269.935C630.638 265.854 631.009 198.36 637.737 267.256Z" fill="#85FBFD"/>
<mask id="mask1_211_2774" style="mask-type:alpha" maskUnits="userSpaceOnUse" x="485" y="149" width="154" height="251">
<ellipse cx="562.077" cy="274.644" rx="76.0262" ry="125.341" transform="rotate(-5.57774 562.077 274.644)" fill="#4C90D4"/>
</mask>
<g mask="url(#mask1_211_2774)">
<path d="M484.805 240.522L561.712 236.676L553.418 246.478L549.648 260.803V275.883L553.418 290.209L561.712 303.026L574.529 308.304L497.623 332.508L490.837 316.674L488.198 303.442L485.559 290.209L483.297 274.452L482.543 262.388L483.297 249.57L484.805 240.522Z" fill="#2254B8"/>
</g>
<path d="M593.045 269.188C594.033 279.303 592.393 288.683 588.969 295.669C585.541 302.663 580.369 307.184 574.314 307.775C568.258 308.367 562.31 304.932 557.593 298.733C552.882 292.542 549.458 283.656 548.471 273.541C547.483 263.426 549.123 254.046 552.547 247.06C555.975 240.066 561.147 235.545 567.202 234.954C573.258 234.362 579.206 237.797 583.923 243.996C588.634 250.187 592.058 259.073 593.045 269.188Z" fill="#3A2CDA" stroke="#3A2CDA"/>
<path d="M591.735 271.278C592.497 279.077 591.27 286.3 588.696 291.67C586.118 297.05 582.234 300.491 577.71 300.933C573.185 301.375 568.709 298.75 565.139 293.971C561.575 289.2 558.973 282.351 558.212 274.552C557.45 266.753 558.677 259.529 561.251 254.159C563.829 248.779 567.713 245.339 572.237 244.897C576.762 244.455 581.237 247.079 584.808 251.859C588.372 256.629 590.974 263.479 591.735 271.278Z" fill="#9BE8ED" stroke="#9BE8ED"/>
<path d="M306.65 291.243C311.287 285.343 317.843 281.251 325.181 279.677L355.179 273.244L342.326 301.653C337.124 313.151 339.956 326.694 349.329 335.145L368.247 352.201L339.319 357.414L331.109 356.499C321.118 355.385 312.16 349.83 306.72 341.376V341.376L304.632 337.127C298.917 325.499 298.118 312.061 302.414 299.837L303.271 297.397C304.052 295.174 305.194 293.095 306.65 291.243V291.243Z" fill="#F0973E"/>
<path d="M320.245 290.019C324.744 283.75 331.051 279.007 338.321 276.424L362.526 267.827L350.307 302.376C346.551 312.997 349.286 324.832 357.321 332.729L379.767 354.788L340.965 357.378C339.174 357.498 337.379 357.213 335.714 356.544V356.544C330.448 354.43 326.079 350.553 323.355 345.574L320.131 339.684L318.973 337.568C311.889 324.623 311.229 309.119 317.186 295.618L317.655 294.554C318.36 292.957 319.228 291.437 320.245 290.019V290.019Z" fill="#CF4E91"/>
<path d="M360.36 269.636C360.887 268.835 361.588 268.162 362.411 267.669L364.931 266.156L357.688 305.28C356.251 313.041 358.039 321.052 362.64 327.465L383.027 355.88L376.096 355.126L365.767 346.331C360.877 342.168 356.676 337.257 353.321 331.781V331.781C349.111 324.911 347.242 316.861 347.994 308.838L349.097 297.07L349.221 296.473C351.206 286.904 354.986 277.798 360.36 269.636V269.636Z" fill="#CA435C"/>
<path d="M269.92 180.211L291.032 199.814L316.667 181.719L321.945 199.814H341.549L349.843 190.012L362.66 193.782L371.708 171.917L389.804 199.814L400.359 177.949L418.455 190.012" stroke="#85FBFD"/>
<circle cx="269.923" cy="179.458" r="3.01593" fill="#F0973E"/>
<circle cx="291.032" cy="200.563" r="3.01593" fill="#F0973E"/>
<circle cx="316.662" cy="180.954" r="3.01593" fill="#F0973E"/>
<circle cx="321.186" cy="199.05" r="3.01593" fill="#F0973E"/>
<circle cx="342.303" cy="199.05" r="3.01593" fill="#F0973E"/>
<circle cx="349.843" cy="190.002" r="3.01593" fill="#F0973E"/>
<circle cx="363.413" cy="193.029" r="3.01593" fill="#F0973E"/>
<circle cx="372.462" cy="171.907" r="3.01593" fill="#F0973E"/>
<circle cx="390.556" cy="200.563" r="3.01593" fill="#F0973E"/>
<circle cx="401.115" cy="176.431" r="3.01593" fill="#F0973E"/>
<circle cx="419.211" cy="190.002" r="3.01593" fill="#F0973E"/>
<circle cx="366.431" cy="664.997" r="27.1434" fill="#2254B8" fill-opacity="0.87"/>
<g clip-path="url(#clip0_211_2774)">
<path d="M377.082 655.228L376.443 646.292L370.802 646.696L371.097 650.817L365.081 645.971L348.243 664.185L352.756 663.862L353.805 678.527L363.958 677.8L363.151 666.519L369.919 666.035L370.727 677.315L380.88 676.589L379.83 661.923L384.342 661.6L377.082 655.228Z" fill="#85FBFD" fill-opacity="0.81"/>
</g>
<path d="M485.605 679.94L492.819 671.982C492.935 671.854 493.022 671.702 493.074 671.537C493.126 671.372 493.142 671.198 493.12 671.026C493.098 670.854 493.04 670.689 492.948 670.542C492.857 670.395 492.734 670.27 492.59 670.175L483.621 664.265C482.765 663.701 481.641 664.401 481.77 665.418L483.526 679.287C483.654 680.304 484.917 680.701 485.605 679.94Z" fill="#85FBFD"/>
<path d="M232.224 698.306L223.165 692.536C223.019 692.443 222.895 692.319 222.801 692.174C222.707 692.028 222.646 691.864 222.622 691.693C222.598 691.522 222.61 691.347 222.66 691.181C222.709 691.015 222.794 690.862 222.908 690.732L229.998 682.663C230.675 681.893 231.943 682.271 232.087 683.286L234.058 697.126C234.202 698.141 233.089 698.858 232.224 698.306Z" fill="#85FBFD"/>
<defs>
<filter id="filter0_i_211_2774" x="76.064" y="38.6677" width="478.61" height="723.342" filterUnits="userSpaceOnUse" color-interpolation-filters="sRGB">
<feFlood flood-opacity="0" result="BackgroundImageFix"/>
<feBlend mode="normal" in="SourceGraphic" in2="BackgroundImageFix" result="shape"/>
<feColorMatrix in="SourceAlpha" type="matrix" values="0 0 0 0 0 0 0 0 0 0 0 0 0 0 0 0 0 0 127 0" result="hardAlpha"/>
<feOffset dx="9" dy="4"/>
<feGaussianBlur stdDeviation="2"/>
<feComposite in2="hardAlpha" operator="arithmetic" k2="-1" k3="1"/>
<feColorMatrix type="matrix" values="0 0 0 0 0.304578 0 0 0 0 0.244281 0 0 0 0 0.993685 0 0 0 0.57 0"/>
<feBlend mode="normal" in2="shape" result="effect1_innerShadow_211_2774"/>
</filter>
<filter id="filter1_i_211_2774" x="194.579" y="455.326" width="108.526" height="141.193" filterUnits="userSpaceOnUse" color-interpolation-filters="sRGB">
<feFlood flood-opacity="0" result="BackgroundImageFix"/>
<feBlend mode="normal" in="SourceGraphic" in2="BackgroundImageFix" result="shape"/>
<feColorMatrix in="SourceAlpha" type="matrix" values="0 0 0 0 0 0 0 0 0 0 0 0 0 0 0 0 0 0 127 0" result="hardAlpha"/>
<feMorphology radius="5" operator="erode" in="SourceAlpha" result="effect1_innerShadow_211_2774"/>
<feOffset dx="-9" dy="10"/>
<feGaussianBlur stdDeviation="6"/>
<feComposite in2="hardAlpha" operator="arithmetic" k2="-1" k3="1"/>
<feColorMatrix type="matrix" values="0 0 0 0 0 0 0 0 0 0 0 0 0 0 0 0 0 0 0.25 0"/>
<feBlend mode="normal" in2="shape" result="effect1_innerShadow_211_2774"/>
</filter>
<filter id="filter2_d_211_2774" x="201.11" y="267.946" width="55.2114" height="81.8384" filterUnits="userSpaceOnUse" color-interpolation-filters="sRGB">
<feFlood flood-opacity="0" result="BackgroundImageFix"/>
<feColorMatrix in="SourceAlpha" type="matrix" values="0 0 0 0 0 0 0 0 0 0 0 0 0 0 0 0 0 0 127 0" result="hardAlpha"/>
<feOffset dx="-1" dy="4"/>
<feComposite in2="hardAlpha" operator="out"/>
<feColorMatrix type="matrix" values="0 0 0 0 0 0 0 0 0 0 0 0 0 0 0 0 0 0 0.25 0"/>
<feBlend mode="normal" in2="BackgroundImageFix" result="effect1_dropShadow_211_2774"/>
<feBlend mode="normal" in="SourceGraphic" in2="effect1_dropShadow_211_2774" result="shape"/>
</filter>
<filter id="filter3_d_211_2774" x="201.748" y="336.769" width="53.2739" height="66.2384" filterUnits="userSpaceOnUse" color-interpolation-filters="sRGB">
<feFlood flood-opacity="0" result="BackgroundImageFix"/>
<feColorMatrix in="SourceAlpha" type="matrix" values="0 0 0 0 0 0 0 0 0 0 0 0 0 0 0 0 0 0 127 0" result="hardAlpha"/>
<feOffset dy="4"/>
<feComposite in2="hardAlpha" operator="out"/>
<feColorMatrix type="matrix" values="0 0 0 0 0 0 0 0 0 0 0 0 0 0 0 0 0 0 0.25 0"/>
<feBlend mode="normal" in2="BackgroundImageFix" result="effect1_dropShadow_211_2774"/>
<feBlend mode="normal" in="SourceGraphic" in2="effect1_dropShadow_211_2774" result="shape"/>
</filter>
<clipPath id="clip0_211_2774">
<rect width="36.1911" height="36.1911" fill="white" transform="translate(346.87 645.007) rotate(-4.09505)"/>
</clipPath>
</defs>
</svg>
